<svg width="341" height="123" viewBox="0 0 341 123" fill="none" xmlns="http://www.w3.org/2000/svg">
<path fill-rule="evenodd" clip-rule="evenodd" d="M63.2768 73.2979L92.0233 48.4453V34.1293L70.4995 0H120.626C121.939 0 123.003 1.06408 123.003 2.37669V120.626C123.003 121.939 121.939 123.003 120.626 123.003H78.6589L110.258 77.9935L105.448 45.0095L63.3015 79.7114V123.003H59.6368V81.2003C59.6368 73.7037 42.602 61.4067 40.8694 60.156L40.8295 60.1272C25.8241 49.29 22.2759 32.5259 22.2759 30.808C17.0076 44.0933 11.0522 72.6107 13.7111 83.0328C17.1537 96.5264 34.1704 108.053 45.2063 113.497C52.2311 116.963 56.8558 120.403 58.767 123.003H2.37658C1.06396 123.003 -0.00012207 121.939 -0.00012207 120.626V2.3767C-0.00012207 1.06409 1.06396 0 2.37657 0H45.0929L35.7901 14.2015C33.8049 16.6829 29.8346 23.2263 29.8346 29.5482C29.8346 37.4506 33.1135 46.2354 46.8993 57.264L47.4822 57.73C53.0531 62.1822 59.3357 67.2032 59.3825 70.8518C59.3827 71.028 59.3828 71.0459 59.3828 70.8928L59.3825 70.8518C59.3801 68.235 59.3626 30.6962 59.4275 0L63.2768 0V71.6945V73.2979Z" fill="#0D0D0D"/>
<path d="M144.534 55.8802H142.702V14.0775H144.534V55.8802Z" fill="#0D0D0D"/>
<path d="M157.241 55.8802H155.409V26.103H156.897V33.0892C158.329 28.3935 161.994 25.3013 167.72 25.3013H167.835C175.279 25.3013 179.23 30.3978 179.23 38.0139V55.8802H177.398V37.5558C177.398 31.314 173.962 27.0192 167.663 27.0192C161.249 27.0192 157.241 31.3713 157.241 37.7848V55.8802Z" fill="#0D0D0D"/>
<path d="M199.563 55.8802H195.326L184.159 26.103H186.049L196.528 54.1623H198.361L207.752 26.103H209.584L199.563 55.8802Z" fill="#0D0D0D"/>
<path d="M216.709 19.1168C215.449 19.1168 214.762 18.3723 214.762 17.2271C214.762 16.139 215.449 15.3374 216.709 15.3374C217.968 15.3374 218.656 16.139 218.656 17.2271C218.656 18.3723 217.968 19.1168 216.709 19.1168ZM218.885 55.8802H217.052V27.8209H211.899V26.103H218.885V55.8802Z" fill="#0D0D0D"/>
<path d="M237.053 56.6819C229.781 56.6819 225.887 52.9025 225.887 47.7488H227.719C227.719 51.7 230.468 54.964 237.053 54.964C243.581 54.964 246.387 51.6427 246.387 47.7488C246.387 43.8548 243.123 41.8506 238.771 41.3925L235.106 40.9916C230.124 40.419 227.146 37.7276 227.146 33.4328C227.146 29.0234 230.697 25.1868 237.053 25.1868C242.951 25.1868 246.96 28.5653 246.96 33.4328H245.127C245.185 29.7106 242.207 26.9047 237.053 26.9047C231.441 26.9047 228.979 30.0542 228.979 33.5473C228.979 36.4678 231.155 38.8728 235.278 39.331L238.943 39.7318C244.154 40.3044 248.22 42.8241 248.22 47.8633C248.22 52.7307 244.326 56.6819 237.053 56.6819Z" fill="#0D0D0D"/>
<path d="M256.559 19.1168C255.299 19.1168 254.612 18.3723 254.612 17.2271C254.612 16.139 255.299 15.3374 256.559 15.3374C257.818 15.3374 258.506 16.139 258.506 17.2271C258.506 18.3723 257.818 19.1168 256.559 19.1168ZM258.735 55.8802H256.902V27.8209H251.748V26.103H258.735V55.8802Z" fill="#0D0D0D"/>
<path d="M282.858 56.7965C276.273 56.7965 271.692 52.9025 269.859 47.8633V55.8802H268.371V14.0775H270.203V33.3755C272.207 28.5653 276.617 25.1868 282.858 25.1868C292.078 25.1868 297.232 32.9174 297.232 40.8198V41.1634C297.232 48.6077 292.307 56.7965 282.858 56.7965ZM282.744 55.0785C290.99 55.0785 295.399 48.0923 295.399 40.9916C295.399 33.4328 290.761 26.9047 282.744 26.9047C275.185 26.9047 270.089 32.3447 270.089 39.4455V42.5377C270.089 49.1804 274.956 55.0785 282.744 55.0785Z" fill="#0D0D0D"/>
<path d="M306.04 55.8802H304.208V15.7955H299.512V14.0775H306.04V55.8802Z" fill="#0D0D0D"/>
<path d="M327.457 56.7965C317.493 56.7965 312.912 48.9513 312.912 40.9916V40.648C312.912 32.8601 317.722 25.1868 327.114 25.1868C335.818 25.1868 340.857 32.0012 340.857 39.1019V40.9343H314.63C314.687 48.4932 318.81 55.0785 327.457 55.0785C333.699 55.0785 337.65 51.7 338.566 47.5197H340.399C339.196 52.9025 334.615 56.7965 327.457 56.7965ZM327.114 26.9047C319.497 26.9047 315.26 32.5165 314.687 39.2164H339.139C338.91 32.2875 334.443 26.9047 327.114 26.9047Z" fill="#0D0D0D"/>
<path d="M160.053 106.768C144.763 106.768 139.151 95.0865 139.151 85.2371V84.5499C139.151 73.9561 145.622 63.0187 159.136 63.0187C168.871 63.0187 175.571 68.8023 176.659 77.5065H174.827C173.796 69.375 167.383 64.7366 159.136 64.7366C147.226 64.7366 140.984 74.2997 140.984 84.8935C140.984 94.7429 146.367 105.05 160.053 105.05C166.065 105.05 171.047 102.989 174.197 99.4958V89.131H158.449V87.5277H180.095V89.131H176.029V100.011C172.765 104.077 167.325 106.768 160.053 106.768Z" fill="#0D0D0D"/>
<path d="M193.67 106.654C188.001 106.654 183.305 103.39 183.305 97.4343C183.305 92.0515 187.256 88.5584 194.128 88.5584H204.035V85.6952C204.035 80.5987 201.629 77.5065 195.044 77.5065C192.009 77.5065 189.146 77.7355 186.97 78.0791V76.3612C189.203 76.0176 191.837 75.7885 194.128 75.7885C203.004 75.7885 205.867 79.4534 205.867 86.1533V105.852H204.378V99.4386C202.832 104.306 198.537 106.654 193.67 106.654ZM193.784 105.05C198.537 105.05 203.806 102.588 204.035 95.0865V90.1618H193.784C188.172 90.1618 185.137 93.0823 185.137 97.4916C185.137 102.244 188.802 105.05 193.784 105.05Z" fill="#0D0D0D"/>
<path d="M216.842 105.852H215.01V76.0749H216.499V83.6337C217.816 78.48 221.538 75.8458 228.582 75.8458H229.555V77.5637H228.123C220.565 77.5637 216.842 81.4004 216.842 88.8447V105.852Z" fill="#0D0D0D"/>
<path d="M245.751 106.768C236.532 106.768 231.378 99.0377 231.378 91.1353V90.7917C231.378 83.3474 236.303 75.1586 245.751 75.1586C252.05 75.1586 256.46 78.709 258.407 83.4619V64.0494H260.239V105.852H258.75V97.9497C256.861 103.103 252.279 106.768 245.751 106.768ZM245.866 105.05C253.425 105.05 258.521 99.6104 258.521 92.5096V89.4174C258.521 82.7747 253.654 76.8766 245.866 76.8766C237.62 76.8766 233.211 83.8628 233.211 90.9635C233.211 98.5223 237.849 105.05 245.866 105.05Z" fill="#0D0D0D"/>
<path d="M281.646 106.768C271.682 106.768 267.101 98.9232 267.101 90.9635V90.6199C267.101 82.832 271.911 75.1586 281.302 75.1586C290.007 75.1586 295.046 81.9731 295.046 89.0738V90.9062H268.819C268.876 98.4651 272.999 105.05 281.646 105.05C287.888 105.05 291.839 101.672 292.755 97.4916H294.588C293.385 102.874 288.804 106.768 281.646 106.768ZM281.302 76.8766C273.686 76.8766 269.449 82.4884 268.876 89.1883H293.328C293.099 82.2594 288.632 76.8766 281.302 76.8766Z" fill="#0D0D0D"/>
<path d="M303.152 105.852H301.32V76.0749H302.809V83.0611C304.24 78.3654 307.905 75.2732 313.632 75.2732H313.746C321.19 75.2732 325.142 80.3697 325.142 87.9858V105.852H323.309V87.5277C323.309 81.2859 319.873 76.9911 313.574 76.9911C307.161 76.9911 303.152 81.3432 303.152 87.7567V105.852Z" fill="#0D0D0D"/>
</svg>
